<svg width="24" height="25" viewBox="0 0 24 25" fill="none" xmlns="http://www.w3.org/2000/svg">
<path d="M8 6.06146C7.59 6.06146 7.25 5.72146 7.25 5.31146V2.31146C7.25 1.90146 7.59 1.56146 8 1.56146C8.41 1.56146 8.75 1.90146 8.75 2.31146V5.31146C8.75 5.72146 8.41 6.06146 8 6.06146Z" fill="#070A11"/>
<path d="M16 6.06146C15.59 6.06146 15.25 5.72146 15.25 5.31146V2.31146C15.25 1.90146 15.59 1.56146 16 1.56146C16.41 1.56146 16.75 1.90146 16.75 2.31146V5.31146C16.75 5.72146 16.41 6.06146 16 6.06146Z" fill="#070A11"/>
<path d="M8.5 14.8115C8.37 14.8115 8.24 14.7815 8.12 14.7315C7.99 14.6815 7.89 14.6115 7.79 14.5215C7.61 14.3315 7.5 14.0815 7.5 13.8115C7.5 13.6815 7.53 13.5515 7.58 13.4315C7.63 13.3115 7.7 13.2015 7.79 13.1015C7.89 13.0115 7.99 12.9415 8.12 12.8915C8.48 12.7415 8.93 12.8215 9.21 13.1015C9.39 13.2915 9.5 13.5515 9.5 13.8115C9.5 13.8715 9.49 13.9415 9.48 14.0115C9.47 14.0715 9.45 14.1315 9.42 14.1915C9.4 14.2515 9.37 14.3115 9.33 14.3715C9.3 14.4215 9.25 14.4715 9.21 14.5215C9.02 14.7015 8.76 14.8115 8.5 14.8115Z" fill="#070A11"/>
<path d="M12 14.8113C11.87 14.8113 11.74 14.7813 11.62 14.7313C11.49 14.6813 11.39 14.6113 11.29 14.5213C11.11 14.3313 11 14.0813 11 13.8113C11 13.6813 11.03 13.5513 11.08 13.4313C11.13 13.3113 11.2 13.2013 11.29 13.1013C11.39 13.0113 11.49 12.9413 11.62 12.8913C11.98 12.7313 12.43 12.8213 12.71 13.1013C12.89 13.2913 13 13.5513 13 13.8113C13 13.8713 12.99 13.9413 12.98 14.0113C12.97 14.0713 12.95 14.1313 12.92 14.1913C12.9 14.2513 12.87 14.3113 12.83 14.3713C12.8 14.4213 12.75 14.4713 12.71 14.5213C12.52 14.7013 12.26 14.8113 12 14.8113Z" fill="#070A11"/>
<path d="M15.5 14.8113C15.37 14.8113 15.24 14.7813 15.12 14.7313C14.99 14.6813 14.89 14.6113 14.79 14.5213C14.75 14.4713 14.71 14.4213 14.67 14.3713C14.63 14.3113 14.6 14.2513 14.58 14.1913C14.55 14.1313 14.53 14.0713 14.52 14.0113C14.51 13.9413 14.5 13.8713 14.5 13.8113C14.5 13.5513 14.61 13.2913 14.79 13.1013C14.89 13.0113 14.99 12.9413 15.12 12.8913C15.49 12.7313 15.93 12.8213 16.21 13.1013C16.39 13.2913 16.5 13.5513 16.5 13.8113C16.5 13.8713 16.49 13.9413 16.48 14.0113C16.47 14.0713 16.45 14.1313 16.42 14.1913C16.4 14.2513 16.37 14.3113 16.33 14.3713C16.3 14.4213 16.25 14.4713 16.21 14.5213C16.02 14.7013 15.76 14.8113 15.5 14.8113Z" fill="#070A11"/>
<path d="M8.5 18.3114C8.37 18.3114 8.24 18.2814 8.12 18.2314C8 18.1814 7.89 18.1114 7.79 18.0214C7.61 17.8314 7.5 17.5714 7.5 17.3114C7.5 17.1814 7.53 17.0514 7.58 16.9314C7.63 16.8014 7.7 16.6914 7.79 16.6014C8.16 16.2314 8.84 16.2314 9.21 16.6014C9.39 16.7914 9.5 17.0514 9.5 17.3114C9.5 17.5714 9.39 17.8314 9.21 18.0214C9.02 18.2014 8.76 18.3114 8.5 18.3114Z" fill="#070A11"/>
<path d="M12 18.3114C11.74 18.3114 11.48 18.2014 11.29 18.0214C11.11 17.8314 11 17.5714 11 17.3114C11 17.1814 11.03 17.0514 11.08 16.9314C11.13 16.8014 11.2 16.6914 11.29 16.6014C11.66 16.2314 12.34 16.2314 12.71 16.6014C12.8 16.6914 12.87 16.8014 12.92 16.9314C12.97 17.0514 13 17.1814 13 17.3114C13 17.5714 12.89 17.8314 12.71 18.0214C12.52 18.2014 12.26 18.3114 12 18.3114Z" fill="#070A11"/>
<path d="M15.5 18.3114C15.24 18.3114 14.98 18.2014 14.79 18.0214C14.7 17.9314 14.63 17.8214 14.58 17.6914C14.53 17.5714 14.5 17.4414 14.5 17.3114C14.5 17.1814 14.53 17.0514 14.58 16.9314C14.63 16.8014 14.7 16.6914 14.79 16.6014C15.02 16.3714 15.37 16.2614 15.69 16.3314C15.76 16.3414 15.82 16.3614 15.88 16.3914C15.94 16.4114 16 16.4414 16.06 16.4814C16.11 16.5114 16.16 16.5614 16.21 16.6014C16.39 16.7914 16.5 17.0514 16.5 17.3114C16.5 17.5714 16.39 17.8314 16.21 18.0214C16.02 18.2014 15.76 18.3114 15.5 18.3114Z" fill="#070A11"/>
<path d="M20.5 10.1513H3.5C3.09 10.1513 2.75 9.81131 2.75 9.40131C2.75 8.99131 3.09 8.65131 3.5 8.65131H20.5C20.91 8.65131 21.25 8.99131 21.25 9.40131C21.25 9.81131 20.91 10.1513 20.5 10.1513Z" fill="#070A11"/>
<path d="M16 23.0615H8C4.35 23.0615 2.25 20.9615 2.25 17.3115V8.81146C2.25 5.16146 4.35 3.06146 8 3.06146H16C19.65 3.06146 21.75 5.16146 21.75 8.81146V17.3115C21.75 20.9615 19.65 23.0615 16 23.0615ZM8 4.56146C5.14 4.56146 3.75 5.95146 3.75 8.81146V17.3115C3.75 20.1715 5.14 21.5615 8 21.5615H16C18.86 21.5615 20.25 20.1715 20.25 17.3115V8.81146C20.25 5.95146 18.86 4.56146 16 4.56146H8Z" fill="#070A11"/>
</svg>
